<?xml version="1.0" standalone="no"?><!DOCTYPE svg PUBLIC "-//W3C//DTD SVG 1.1//EN" "http://www.w3.org/Graphics/SVG/1.1/DTD/svg11.dtd"><svg t="1567411820235" class="icon" viewBox="0 0 1024 1024" version="1.1" xmlns="http://www.w3.org/2000/svg" p-id="2097" xmlns:xlink="http://www.w3.org/1999/xlink" width="200" height="200"><defs><style type="text/css"></style></defs><path d="M563 912h-97.8c-4.9 0-9.2-1.7-12.8-5.1-3.6-3.5-5.4-7.8-5.4-13V706.3H283.3c-4.9 0-9.2-1.7-12.8-5.1-3.6-3.5-5.4-7.8-5.4-13v-58.6c0-4.9 1.8-9.2 5.4-12.8 3.6-3.6 7.9-5.4 12.8-5.4h163.6v-48.3H283.3c-4.9 0-9.2-1.7-12.8-5.1-3.6-3.5-5.4-7.8-5.4-13v-59c0-4.9 1.8-9.2 5.4-12.8 3.6-3.6 7.9-5.4 12.8-5.4H405L222.6 139.2c-3-6.1-3-12.1 0-18.2 3.8-6.1 9.1-9.1 15.9-9.1h110.2c7.2 0 12.7 3.5 16.5 10.3l122.1 241.5c7.2 14.5 17.8 38.1 31.8 71 3.8-9.1 9.6-22 17.3-38.6 7.8-16.6 13-28.2 15.7-34.7l108.5-238.7c3-7.2 8.5-10.8 16.5-10.8h108.5c6.5 0 11.6 3 15.3 9.1 3.5 5.3 3.6 11.2 0.6 17.6L623.7 467.7h122.1c4.9 0 9.2 1.8 12.8 5.4s5.4 7.9 5.4 12.8v59c0 5.3-1.8 9.7-5.4 13-3.6 3.5-7.9 5.1-12.8 5.1H581.1v48.3h164.8c4.9 0 9.2 1.8 12.8 5.4 3.6 3.6 5.4 7.9 5.4 12.8V688c0 5.3-1.8 9.7-5.4 13-3.6 3.5-7.9 5.1-12.8 5.1H581.1v187.5c0 4.9-1.8 9.2-5.4 12.8-3.6 3.8-7.8 5.6-12.7 5.6z" p-id="2098"></path></svg>