<?xml version="1.0" standalone="no"?><!DOCTYPE svg PUBLIC "-//W3C//DTD SVG 1.1//EN" "http://www.w3.org/Graphics/SVG/1.1/DTD/svg11.dtd"><svg t="1567154876216" class="icon" viewBox="0 0 1024 1024" version="1.1" xmlns="http://www.w3.org/2000/svg" p-id="3370" xmlns:xlink="http://www.w3.org/1999/xlink" width="200" height="200"><defs><style type="text/css"></style></defs><path d="M397.404032 282.310737l217.350237 0c67.258847 0 118.563326-145.856949 118.563326-145.856949 0-43.677778-4.374634-76.726475-79.05859-79.054497-74.65735-2.352581-92.545766 52.208059-146.20385 52.208059-54.995545 0-82.503039-42.893926-150.179394-52.208059-67.653843-9.361205-79.036078 35.376719-79.036078 79.054497C278.840706 136.456858 330.126766 282.310737 397.404032 282.310737L397.404032 282.310737zM626.618481 327.395562 397.404032 327.395562c-253.821893 0-316.15966 498.659157-316.15966 498.659157 0 65.50183 53.084009 131.288139 118.563326 131.288139l624.388696 0c65.475224 0 118.559233-65.786309 118.559233-131.288139C942.755628 826.058812 880.401488 327.395562 626.618481 327.395562L626.618481 327.395562zM652.637064 710.633966c15.291265 0 27.682479 12.416797 27.682479 27.710109s-12.391215 27.704992-27.682479 27.704992L540.244274 766.049067l0 72.686463c0 15.291265-12.390191 27.710109-27.66099 27.710109-15.293311 0-27.683503-12.417821-27.683503-27.710109l0-72.686463L371.784538 766.049067c-15.292288 0-27.683503-12.412704-27.683503-27.704992s12.391215-27.710109 27.683503-27.710109l113.114221 0 0-35.153638L371.784538 675.480328c-15.292288 0-27.683503-12.394285-27.683503-27.687596 0-15.288195 12.391215-27.727505 27.683503-27.727505l76.463486 0-78.285994-139.129734c-7.644097-13.272281-3.099594-30.190603 10.128685-37.8347 13.250792-7.649214 30.169113-3.122107 37.813211 10.108219l94.263897 166.856215 4.768607 0 94.258781-166.856215c7.643074-13.229303 24.567535-17.757432 37.791721-10.108219 13.249769 7.644097 17.799388 24.562419 10.151197 37.8347L580.850088 620.065228l71.786976 0c15.291265 0 27.682479 12.435217 27.682479 27.727505 0 15.293311-12.391215 27.687596-27.682479 27.687596L540.244274 675.480328l0 35.153638L652.637064 710.633966 652.637064 710.633966zM652.637064 710.633966" p-id="3371"></path></svg>